HIERARCHY
ROOT ui
{
	 OFFSET 0 0 0
	 CHANNELS 3 XPosition YPosition Z Position
	 EndSite
	 {
	 OFFSET 0 -1 0
	 }
}
ROOT li
{
	 OFFSET 0 0 0
	 CHANNELS 3 XPosition YPosition Z Position
	 EndSite
	 {
	 OFFSET 0 -1 0
	 }
}
ROOT ul
{
	 OFFSET 0 0 0
	 CHANNELS 3 XPosition YPosition Z Position
	 EndSite
	 {
	 OFFSET 0 -1 0
	 }
}
ROOT ll
{
	 OFFSET 0 0 0
	 CHANNELS 3 XPosition YPosition Z Position
	 EndSite
	 {
	 OFFSET 0 -1 0
	 }
}
ROOT tt
{
	 OFFSET 0 0 0
	 CHANNELS 3 XPosition YPosition Z Position
	 EndSite
	 {
	 OFFSET 0 -1 0
	 }
}
ROOT tb
{
	 OFFSET 0 0 0
	 CHANNELS 3 XPosition YPosition Z Position
	 EndSite
	 {
	 OFFSET 0 -1 0
	 }
}
ROOT td
{
	 OFFSET 0 0 0
	 CHANNELS 3 XPosition YPosition Z Position
	 EndSite
	 {
	 OFFSET 0 -1 0
	 }
}
ROOT v
{
	 OFFSET 0 0 0
	 CHANNELS 3 XPosition YPosition Z Position
	 EndSite
	 {
	 OFFSET 0 -1 0
	 }
}
ROOT bn
{
	 OFFSET 0 0 0
	 CHANNELS 3 XPosition YPosition Z Position
	 EndSite
	 {
	 OFFSET 0 -1 0
	 }
}
MOTION
Frames: 21
Frame Time: 0.002
-0.005290393829345703	-0.008211269378662109	0		0.5723629760742187	-2.456084716796875	0		-1.0558197021484375	0.27117578125	0		-0.5474497680664062	-2.556605224609375	0		1.8154521484375	-0.64436669921875	0		3.4054814453125	-0.5346102294921875	0		4.564171875	-0.32071624755859374	0		5.8620478515625	0.12944725036621094	0		-0.14486456298828124	5.95290673828125	0		
-0.006357390880584717	8.575159907341003E-4	0		0.5731473999023438	-2.4540556640625	0		-1.0410008544921876	0.2729950866699219	0		-0.543634033203125	-2.552611328125	0		1.785314453125	-0.63884228515625	0		3.45490478515625	-0.5564257202148437	0		4.56086962890625	-0.32567337036132815	0		5.85773095703125	0.14687318420410156	0		-0.2612165832519531	5.94088134765625	0		
0.004475499153137207	0.002725642919540405	0		0.5790439453125	-2.4471103515625	0		-1.0371317138671876	0.27698699951171873	0		-0.5407874755859375	-2.548606689453125	0		1.7943905029296876	-0.62195751953125	0		3.42182177734375	-0.5488585205078125	0		4.55658642578125	-0.3305929565429688	0		5.8617490234375	0.12940907287597656	0		-0.14613522338867188	5.95402978515625	0		
0.02316347885131836	-0.0055419478416442874	0		0.6266878662109375	-2.45785888671875	0		-0.97330029296875	0.2769769287109375	0		-0.5460704345703125	-2.55447607421875	0		1.7594149169921875	-0.6093399047851562	0		3.41727978515625	-0.5707535400390625	0		4.53717919921875	-0.3442442626953125	0		5.84665771484375	0.13178938293457032	0		-0.27864111328125	5.93426171875	0		
-0.006885549068450928	9.92908000946045E-4	0		0.565780029296875	-2.442811279296875	0		-0.9675366821289062	0.27191604614257814	0		-0.559116943359375	-2.5482236328125	0		1.7831446533203126	-0.6166929321289063	0		3.417128662109375	-0.57070751953125	0		4.5387958984375	-0.35822723388671873	0		5.85783056640625	0.11239200592041015	0		-0.2929847717285156	5.9235341796875	0		
-0.007011782169342041	0.0010252599716186524	0		0.624396728515625	-2.45974853515625	0		-0.9735811767578125	0.27704083251953127	0		-0.5503936157226562	-2.558342041015625	0		1.7622896728515625	-0.6003043212890625	0		3.41670849609375	-0.5886510620117188	0		4.53735791015625	-0.3771470031738281	0		5.84646044921875	0.13199737548828125	0		-0.27896856689453126	5.93433154296875	0		
-0.002194192886352539	-0.004032355785369873	0		0.5764957275390625	-2.44892578125	0		-1.043607666015625	0.28221060180664065	0		-0.5504652709960938	-2.55832373046875	0		1.7563134765625	-0.593162841796875	0		3.424730224609375	-0.58172314453125	0		4.5431298828125	-0.3851719665527344	0		5.85351123046875	0.13013284301757813	0		-0.27913134765625	5.93435302734375	0		
0.01779871368408203	-3.473640084266663E-4	0		0.6225889282226562	-2.44166162109375	0		-0.9627760009765625	0.27587396240234374	0		-0.5593298950195312	-2.548169189453125	0		1.7485338134765624	-0.5759903564453125	0		3.40257275390625	-0.5872905883789062	0		4.5241669921875	-0.37877334594726564	0		5.85050390625	0.11486335754394532	0		-0.1469484100341797	5.9541826171875	0		
-0.0072218642234802245	0.0010715030431747436	0		0.5686553955078125	-2.43775244140625	0		-1.043728759765625	0.2821952209472656	0		-0.52740478515625	-2.553700927734375	0		1.7665028076171876	-0.5762445678710938	0		3.444489013671875	-0.5909061279296876	0		4.528671875	-0.40675250244140626	0		5.85463916015625	0.09761446380615234	0		-0.29363525390625	5.92359716796875	0		
0.022664798736572265	-0.005424290180206299	0		0.618585693359375	-2.4455625	0		-1.0437464599609374	0.2821656799316406	0		-0.5633281860351562	-2.552125	0		1.7244798583984375	-0.57751025390625	0		3.389517822265625	-0.5889149780273437	0		4.52077197265625	-0.40050765991210935	0		5.8442431640625	0.143272705078125	0		-0.17561685180664063	5.9336435546875	0		
-0.012148216247558593	0.005138247013092041	0		0.5579172973632812	-2.430554931640625	0		-1.047802490234375	0.2781878967285156	0		-0.5411687622070313	-2.54851611328125	0		1.7214503173828124	-0.5814188842773438	0		3.386471923828125	-0.5937720336914063	0		4.51054052734375	-0.41621328735351565	0		5.84313623046875	0.08305238342285157	0		-0.293963623046875	5.92356640625	0		
-0.0022539288997650148	-0.004045413970947266	0		0.5808314819335938	-2.4439306640625	0		-1.0437041015625	0.2820637817382812	0		-0.5501968994140625	-2.558406982421875	0		1.689666259765625	-0.5718544921875	0		3.4085009765625	-0.59603173828125	0		4.50341943359375	-0.4269561767578125	0		5.84684375	0.09880582427978515	0		-0.14564402770996093	5.95210498046875	0		
0.00797430181503296	0.005760694980621338	0		0.5772410888671875	-2.428873046875	0		-0.9554814453125	0.2915526123046875	0		-0.5228685913085938	-2.54890087890625	0		1.6920654296875	-0.5528510131835938	0		3.38970751953125	-0.5886143798828125	0		4.50040478515625	-0.43275482177734376	0		5.83699365234375	0.11166670227050782	0		-0.16194529724121093	5.9443330078125	0		
-0.01195379638671875	0.005049986839294434	0		0.5546468505859375	-2.415511962890625	0		-1.0385113525390626	0.2858284912109375	0		-0.5695196533203125	-2.539195556640625	0		1.6691292724609375	-0.5554397583007813	0		3.3704951171875	-0.6081927490234375	0		4.49437939453125	-0.44049884033203124	0		5.837060546875	0.11203939056396485	0		-0.3096348876953125	5.9136904296875	0		
-0.0019982980489730833	-0.004158320903778076	0		0.5876263427734375	-2.430068359375	0		-0.980330810546875	0.2907916259765625	0		-0.5363883056640625	-2.544803466796875	0		1.6802723388671874	-0.5545904541015625	0		3.38154296875	-0.6132665405273438	0		4.47529345703125	-0.4530333557128906	0		5.83418359375	0.09695681762695313	0		-0.3097960815429687	5.91363037109375	0		
-0.0018785510063171387	-0.004214757919311523	0		0.56290673828125	-2.426693359375	0		-1.03831396484375	0.2856328125	0		-0.5711014404296875	-2.54131640625	0		1.65838720703125	-0.5562144165039062	0		3.367708251953125	-0.6119443969726562	0		4.46725634765625	-0.46375796508789063	0		5.8372314453125	0.11276838684082031	0		-0.29478131103515626	5.9233154296875	0		
-0.006661573886871338	7.982159852981568E-4	0		0.5662288818359374	-2.421784912109375	0		-1.02906298828125	0.2933735046386719	0		-0.5688226928710938	-2.53944140625	0		1.661594970703125	-0.5532577514648438	0		3.365080810546875	-0.5988170776367188	0		4.47736181640625	-0.46679058837890625	0		5.83733349609375	0.11309611511230469	0		-0.29490576171875	5.9232353515625	0		
0.004520588874816894	0.0025419299602508546	0		0.5783681030273438	-2.429031982421875	0		-1.0248599853515625	0.2971866760253906	0		-0.5604359130859375	-2.531673828125	0		1.658931396484375	-0.54321875	0		3.3602099609375	-0.6016720581054688	0		4.46350244140625	-0.4684534912109375	0		5.83449169921875	0.09793231964111328	0		-0.17682656860351562	5.9332392578125	0		
0.018638456344604492	-7.724059820175171E-4	0		0.6206927490234375	-2.42577490234375	0		-0.95479345703125	0.2909300537109375	0		-0.528250732421875	-2.53730029296875	0		1.6501707763671876	-0.5400972290039062	0		3.360402099609375	-0.6016265869140625	0		4.44756298828125	-0.4761051635742187	0		5.83878125	0.08071922302246094	0		-0.31023382568359376	5.91328564453125	0		
-0.006157937049865722	5.282009840011597E-4	0		0.560200927734375	-2.410875244140625	0		-1.028594482421875	0.292980712890625	0		-0.5598865966796875	-2.531908203125	0		1.6444725341796875	-0.5340408935546875	0		3.327565185546875	-0.6040713500976562	0		4.44262109375	-0.484957763671875	0		5.824849609375	0.11088654327392578	0		-0.3122395935058594	5.91520458984375	0		
-0.005103640079498291	-0.008600307464599609	0		0.5823682250976563	-2.41832080078125	0		-1.024342529296875	0.2967669982910156	0		-0.5575682983398438	-2.530073486328125	0		1.6026629638671874	-0.5354241943359375	0		3.298804443359375	-0.6026048583984375	0		4.4267744140625	-0.4886601867675781	0		5.83123095703125	0.08311473846435546	0		-0.31126239013671875	5.914064453125	0		
